<svg width="178" height="68" viewBox="0 0 178 68" fill="none" xmlns="http://www.w3.org/2000/svg">
<path d="M40.99 43.1893L23.05 30.8143C21.232 29.5603 21.85 26.9493 24.117 26.3353L43.184 21.1603C43.5879 21.0145 44.0207 20.9672 44.4466 21.0223C44.8724 21.0773 45.279 21.2332 45.6326 21.4768C45.9861 21.7205 46.2765 22.0449 46.4795 22.4233C46.6825 22.8016 46.7924 23.223 46.8 23.6523L45.67 41.2013C45.536 43.2843 42.808 44.4433 40.99 43.1893Z" fill="#179D2D"/>
<path d="M35.3 46.2443L24.731 25.5753C24.4894 25.1024 24.3831 24.5721 24.4238 24.0426C24.4645 23.5132 24.6506 23.0053 24.9616 22.5749C25.2726 22.1445 25.6964 21.8084 26.1863 21.6036C26.6762 21.3988 27.2132 21.3333 27.738 21.4143L47.325 24.4373C47.7759 24.5069 48.2039 24.6825 48.5738 24.9498C48.9436 25.217 49.2447 25.5683 49.4524 25.9746C49.66 26.3809 49.7683 26.8307 49.7682 27.287C49.7681 27.7433 49.6597 28.193 49.452 28.5993L40.429 46.2453C40.1867 46.7168 39.8191 47.1123 39.3666 47.3885C38.9141 47.6646 38.3943 47.8107 37.8642 47.8106C37.3341 47.8105 36.8143 47.6642 36.3619 47.3879C35.9095 47.1116 35.5421 46.7159 35.3 46.2443Z" fill="#70E2B2"/>
<path d="M46.752 24.3483L36.988 22.8413L25 26.0963L29.785 35.4573L40.99 43.1893C41.2372 43.358 41.5091 43.4872 41.796 43.5723L46.052 35.2493L46.752 24.3483Z" fill="#12215E"/>
<path d="M96.209 26.7643C96.209 26.4014 96.3166 26.0466 96.5182 25.7449C96.7199 25.4431 97.0065 25.2079 97.3418 25.069C97.6771 24.9301 98.046 24.8938 98.402 24.9646C98.7579 25.0354 99.0849 25.2102 99.3415 25.4668C99.5982 25.7234 99.7729 26.0504 99.8437 26.4063C99.9145 26.7623 99.8782 27.1312 99.7393 27.4665C99.6004 27.8018 99.3652 28.0884 99.0635 28.2901C98.7617 28.4917 98.4069 28.5993 98.044 28.5993C97.5588 28.5944 97.095 28.3995 96.7519 28.0564C96.4089 27.7133 96.2139 27.2495 96.209 26.7643ZM96.515 29.4963H99.574V39.6903H96.515V29.4963Z" fill="#12215E"/>
<path d="M112.784 34.5933C112.82 35.2671 112.721 35.9413 112.496 36.5771C112.27 37.2128 111.92 37.7977 111.467 38.298C111.015 38.7982 110.467 39.204 109.857 39.4921C109.247 39.7801 108.586 39.9447 107.912 39.9763C107.345 40.0071 106.778 39.9115 106.253 39.6964C105.727 39.4812 105.256 39.1519 104.874 38.7323V43.7683H101.816V29.4963H104.874V30.4543C105.257 30.0348 105.728 29.7057 106.253 29.4907C106.778 29.2757 107.345 29.1803 107.912 29.2113C108.586 29.2428 109.247 29.4072 109.857 29.6951C110.467 29.9831 111.015 30.3888 111.467 30.889C111.92 31.3892 112.27 31.9739 112.496 32.6097C112.721 33.2454 112.82 33.9195 112.784 34.5933ZM109.726 34.5933C109.714 34.116 109.561 33.6529 109.288 33.2618C109.014 32.8708 108.63 32.5692 108.186 32.3949C107.742 32.2205 107.256 32.1812 106.789 32.2817C106.322 32.3822 105.895 32.6181 105.562 32.9599C105.229 33.3017 105.004 33.7343 104.915 34.2034C104.826 34.6725 104.878 35.1574 105.063 35.5973C105.249 36.0372 105.56 36.4126 105.958 36.6766C106.356 36.9406 106.823 37.0813 107.3 37.0813C107.628 37.096 107.955 37.0413 108.26 36.9207C108.565 36.8 108.842 36.6161 109.071 36.3812C109.3 36.1462 109.477 35.8654 109.59 35.5573C109.703 35.2492 109.749 34.9206 109.726 34.5933Z" fill="#12215E"/>
<path d="M122.223 36.6303C122.223 38.9753 120.184 39.9743 117.982 39.9743C117.092 40.0548 116.199 39.8665 115.418 39.4338C114.636 39.0012 114.003 38.344 113.599 37.5473L116.249 36.0393C116.357 36.4076 116.588 36.7277 116.903 36.9461C117.219 37.1645 117.599 37.268 117.982 37.2393C118.716 37.2393 119.082 37.0143 119.082 36.6073C119.082 35.4853 114.067 36.0773 114.067 32.5493C114.067 30.3273 115.942 29.2063 118.067 29.2063C118.864 29.1813 119.653 29.3704 120.352 29.754C121.051 30.1376 121.635 30.7016 122.042 31.3873L119.433 32.7943C119.319 32.5267 119.128 32.2986 118.886 32.1386C118.643 31.9785 118.358 31.8936 118.067 31.8943C117.537 31.8943 117.211 32.0943 117.211 32.4653C117.208 33.6353 122.223 32.8603 122.223 36.6303Z" fill="#12215E"/>
<path d="M133.4 29.4963V39.6903H130.342V38.7303C129.989 39.1532 129.54 39.4864 129.033 39.7027C128.527 39.9189 127.976 40.012 127.426 39.9743C125.367 39.9743 123.614 38.5063 123.614 35.7533V29.4963H126.672V35.3073C126.646 35.5503 126.674 35.796 126.753 36.0272C126.832 36.2584 126.96 36.4697 127.129 36.6463C127.298 36.8229 127.503 36.9605 127.73 37.0496C127.958 37.1387 128.202 37.1772 128.446 37.1623C129.567 37.1623 130.346 36.5103 130.346 35.0623V29.4963H133.4Z" fill="#12215E"/>
<path d="M150.928 33.4303V39.6903H147.87V33.6963C147.87 32.6773 147.38 32.0243 146.402 32.0243C145.382 32.0243 144.812 32.7383 144.812 33.9413V39.6903H141.753V33.6963C141.753 32.6773 141.264 32.0243 140.285 32.0243C139.266 32.0243 138.695 32.7383 138.695 33.9413V39.6903H135.637V29.4963H138.7V30.4303C139.017 30.0144 139.433 29.6846 139.91 29.4709C140.387 29.2573 140.911 29.1667 141.432 29.2073C141.955 29.1817 142.477 29.2922 142.945 29.5279C143.413 29.7636 143.812 30.1165 144.103 30.5523C144.442 30.0964 144.891 29.7338 145.408 29.4986C145.925 29.2634 146.494 29.1631 147.06 29.2073C149.4 29.2113 150.928 30.8823 150.928 33.4303Z" fill="#12215E"/>
<path d="M153.519 29.4333C154.773 29.4333 155.789 28.417 155.789 27.1633C155.789 25.9096 154.773 24.8933 153.519 24.8933C152.265 24.8933 151.249 25.9096 151.249 27.1633C151.249 28.417 152.265 29.4333 153.519 29.4333Z" fill="#12215E"/>
<path d="M54.457 24.8073H57.516V39.6903H54.457V24.8073ZM59.248 34.5933C59.2447 33.5245 59.5585 32.4788 60.1498 31.5886C60.7411 30.6983 61.5833 30.0035 62.5697 29.5922C63.5562 29.1809 64.6424 29.0715 65.6911 29.2779C66.7397 29.4844 67.7035 29.9973 68.4604 30.7519C69.2173 31.5064 69.7333 32.4685 69.943 33.5165C70.1527 34.5645 70.0468 35.6511 69.6386 36.6388C69.2304 37.6265 68.5383 38.4709 67.6499 39.065C66.7615 39.6591 65.7168 39.9762 64.648 39.9763C63.9382 39.9838 63.234 39.8499 62.5765 39.5823C61.9191 39.3147 61.3215 38.9187 60.8188 38.4176C60.316 37.9164 59.9182 37.3201 59.6485 36.6635C59.3788 36.0069 59.2427 35.3031 59.248 34.5933ZM66.996 34.5933C66.984 34.1322 66.8364 33.685 66.5715 33.3075C66.3067 32.93 65.9364 32.6389 65.507 32.4707C65.0775 32.3026 64.6081 32.2647 64.1573 32.362C63.7065 32.4592 63.2944 32.6873 62.9725 33.0175C62.6506 33.3478 62.4333 33.7656 62.3476 34.2187C62.262 34.6719 62.3118 35.1402 62.491 35.5652C62.6701 35.9901 62.9706 36.3528 63.3548 36.6079C63.739 36.863 64.1899 36.9991 64.651 36.9993C64.9668 37.0083 65.2811 36.9517 65.5739 36.8332C65.8668 36.7148 66.1319 36.5369 66.3526 36.3108C66.5733 36.0848 66.7448 35.8155 66.8562 35.5198C66.9676 35.2242 67.0166 34.9087 67 34.5933H66.996ZM82.245 29.4933V39.1783C82.245 42.6033 79.574 44.0503 76.863 44.0503C75.9088 44.1223 74.9531 43.9302 74.1007 43.495C73.2484 43.0599 72.5323 42.3984 72.031 41.5833L74.64 40.0743C74.8506 40.4997 75.1861 40.8507 75.6016 41.0804C76.0171 41.31 76.4927 41.4073 76.965 41.3593C77.2665 41.4004 77.5733 41.3734 77.8629 41.2801C78.1525 41.1868 78.4174 41.0298 78.6382 40.8204C78.8589 40.6111 79.0298 40.3548 79.1383 40.0706C79.2468 39.7864 79.2901 39.4814 79.265 39.1783V38.2403C78.9068 38.6783 78.4509 39.0263 77.934 39.2564C77.417 39.4865 76.8533 39.5923 76.288 39.5653C74.9425 39.5234 73.666 38.9595 72.729 37.9929C71.792 37.0263 71.268 35.733 71.268 34.3868C71.268 33.0405 71.792 31.7472 72.729 30.7806C73.666 29.814 74.9425 29.2501 76.288 29.2083C76.8533 29.1812 77.417 29.287 77.934 29.5171C78.4509 29.7472 78.9068 30.0952 79.265 30.5333V29.4933H82.245ZM79.269 34.3863C79.2892 33.8939 79.1616 33.4067 78.9027 32.9875C78.6438 32.5682 78.2654 32.2359 77.8161 32.0334C77.3669 31.8309 76.8673 31.7674 76.3817 31.8511C75.8961 31.9348 75.4466 32.1618 75.091 32.503C74.7354 32.8442 74.49 33.2839 74.3864 33.7656C74.2827 34.2474 74.3255 34.7491 74.5093 35.2064C74.693 35.6636 75.0094 36.0554 75.4176 36.3314C75.8258 36.6074 76.3073 36.755 76.8 36.7553C77.1213 36.7778 77.4438 36.7329 77.7467 36.6234C78.0496 36.5139 78.3262 36.3422 78.5588 36.1193C78.7913 35.8965 78.9747 35.6274 79.097 35.3295C79.2193 35.0315 79.2779 34.7112 79.269 34.3893V34.3863ZM83.977 34.5863C83.9737 33.5175 84.2875 32.4718 84.8788 31.5816C85.4701 30.6913 86.3123 29.9965 87.2987 29.5852C88.2852 29.1739 89.3714 29.0645 90.4201 29.2709C91.4687 29.4774 92.4324 29.9903 93.1894 30.7449C93.9463 31.4994 94.4623 32.4615 94.672 33.5095C94.8817 34.5575 94.7758 35.6441 94.3676 36.6318C93.9594 37.6195 93.2673 38.4639 92.3789 39.058C91.4905 39.6521 90.4458 39.9692 89.377 39.9693C88.6678 39.9768 87.9642 39.8431 87.3072 39.5759C86.6502 39.3088 86.0529 38.9134 85.5503 38.413C85.0476 37.9126 84.6497 37.3172 84.3796 36.6613C84.1094 36.0055 83.9726 35.3025 83.977 34.5933V34.5863ZM91.725 34.5863C91.7132 34.125 91.5656 33.6774 91.3008 33.2995C91.0359 32.9217 90.6654 32.6304 90.2358 32.462C89.8061 32.2936 89.3364 32.2557 88.8853 32.353C88.4342 32.4502 88.0218 32.6784 87.6998 33.0088C87.3777 33.3393 87.1602 33.7574 87.0746 34.2108C86.9889 34.6642 87.0389 35.1329 87.2182 35.558C87.3976 35.9832 87.6983 36.346 88.0828 36.6012C88.4674 36.8563 88.9186 36.9923 89.38 36.9923C89.6949 37.0006 90.008 36.9439 90.2999 36.8256C90.5918 36.7072 90.8561 36.5299 91.0763 36.3047C91.2964 36.0795 91.4677 35.8112 91.5793 35.5167C91.691 35.2222 91.7406 34.9078 91.725 34.5933V34.5863Z" fill="#12215E"/>
</svg>
