<svg width="17" height="18" viewBox="0 0 17 18" fill="none" xmlns="http://www.w3.org/2000/svg">
<path d="M4.15833 14.4047H12.475V15.964H4.15833V14.4047Z" fill="#1943EF"/>
<path d="M8.31617 10.2458C8.89119 10.2458 9.35576 9.78127 9.35576 9.20625C9.35576 8.63123 8.89119 8.16667 8.31617 8.16667C8.21871 8.16667 8.12125 8.17966 8.03029 8.20565L5.86341 6.62354L5.73346 6.73724L7.32207 8.90412C7.29283 8.99833 7.27659 9.09904 7.27659 9.20625C7.27659 9.78127 7.74115 10.2458 8.31617 10.2458Z" fill="#1943EF"/>
<path d="M8.31668 2.44946C4.58393 2.44946 1.55939 5.474 1.55939 9.20675C1.55939 10.7759 2.09542 12.2183 2.99206 13.3651H4.9023L5.03225 13.2351L5.75021 12.5172L5.00626 11.7732L4.28829 12.4879C3.6418 11.6985 3.24546 10.7336 3.14475 9.72655H4.15835V8.68696H3.14475C3.24546 7.67987 3.6418 6.715 4.28829 5.92557L5.00626 6.64028L5.75021 5.89633L5.03549 5.17837C5.82493 4.53188 6.78979 4.13554 7.79689 4.03483V5.04842H8.83647V4.03483C9.84357 4.13554 10.8084 4.53188 11.5979 5.17837L10.8832 5.89633L11.6271 6.64028L12.3451 5.92557C12.9916 6.715 13.3879 7.67987 13.4886 8.68696H12.475V9.72655H13.4886C13.3879 10.7336 12.9916 11.6985 12.3451 12.4879L11.6271 11.7732L10.8832 12.5172L11.6011 13.2351L11.7311 13.3651H13.6413C14.5379 12.2183 15.074 10.7759 15.074 9.20675C15.074 5.474 12.0494 2.44946 8.31668 2.44946Z" fill="#1943EF"/>
</svg>
